<svg role="img" aria-hidden="true" focusable="false" xmlns="http://www.w3.org/2000/svg" viewBox="0 0 256 256"><defs/><g style="isolation:isolate"><path fill="#6c2548" d="M41 0h174a41 41 0 0141 41v215H41a41 41 0 01-41-41V41A41 41 0 0141 0z"/><path fill="#bebebe" d="M231.5 146.81v-37.62l-17.38-1.35a87.86 87.86 0 00-11-26.47l11.35-13.26-26.6-26.6-13.24 11.35a87.86 87.86 0 00-26.47-11l-1.35-17.36h-37.62l-1.35 17.38a87.86 87.86 0 00-26.47 11L68.11 41.51l-26.6 26.6 11.35 13.26a87.86 87.86 0 00-11 26.47l-17.36 1.35v37.62l17.38 1.35a87.86 87.86 0 0011 26.47l-11.37 13.26 26.6 26.6 13.26-11.35a87.86 87.86 0 0026.47 11l1.35 17.38h37.62l1.35-17.38a87.86 87.86 0 0026.47-11l13.26 11.35 26.6-26.6-11.35-13.26a87.86 87.86 0 0011-26.47zM128 191.35A63.35 63.35 0 11191.35 128 63.36 63.36 0 01128 191.35z"/><path fill="#fff" d="M122.43 243.71l-3.6-115.1H97.56l-3.6 115.1h28.47z"/><path fill="#0075b3" d="M128.73 256l-4.92-102.85H92.45L87.53 256h41.2z"/><path fill="#fff" d="M122.64 122.06l-14.49 4.61-14.4-4.61V88.58a30.09 30.09 0 1028.89 0z"/><path fill="#a4286a" d="M113.88 165.77h-2.73L107 177.4l-2.1-6.4h-2.52l3.15 8.09a3.2 3.2 0 010 2.32 2.89 2.89 0 01-2.35 2h-.07v2.14h.09a4.31 4.31 0 003.06-1.31 11.09 11.09 0 002.3-4.18z" style="mix-blend-mode:multiply"/><path fill="#fff" d="M155.59 115l3.59 9.24V245.2h11.37V124.24l3.58-9.24-3.07-26.41h-12.39L155.59 115z"/><path fill="#0075b3" d="M146.54 201.95h3.02l-2.8 13.45V256h36.21v-40.6l-2.8-13.45h3.02v-8.61h-36.65v8.61z"/></g></svg>